PathFileType	4	(X/Y/Z)	c:\Git\powerlifing_model_clean\simulations\HC835B\Session1\HC835B_OGR_0002\marker_experimental.trc
DataRate	CameraRate	NumFrames	NumMarkers	Units	OrigDataRate	OrigDataStartFrame	OrigNumFrames
240.000000	240.000000	4	38	mm	240.000000	109	218
Frame#	Time	RPSI			LPSI			RASI			LASI			RTH1			RTH2			RTH3			RTH4			RSK1			RSK2			RSK3			RSK4			RCAL1			RCAL2			RCAL3			RST			RPT			RTN			RFMB			RSMB			RVMB			RFMH			RSMH			RVMH			RPM			LTH1			LTH2			LTH3			LTH4			LSK1			LSK2			LSK3			LSK4			LCAL1			LCAL2			LCAL3			LFMH			LVMH			
		X1	Y1	Z1	X2	Y2	Z2	X3	Y3	Z3	X4	Y4	Z4	X5	Y5	Z5	X6	Y6	Z6	X7	Y7	Z7	X8	Y8	Z8	X9	Y9	Z9	X10	Y10	Z10	X11	Y11	Z11	X12	Y12	Z12	X13	Y13	Z13	X14	Y14	Z14	X15	Y15	Z15	X16	Y16	Z16	X17	Y17	Z17	X18	Y18	Z18	X19	Y19	Z19	X20	Y20	Z20	X21	Y21	Z21	X22	Y22	Z22	X23	Y23	Z23	X24	Y24	Z24	X25	Y25	Z25	X26	Y26	Z26	X27	Y27	Z27	X28	Y28	Z28	X29	Y29	Z29	X30	Y30	Z30	X31	Y31	Z31	X32	Y32	Z32	X33	Y33	Z33	X34	Y34	Z34	X35	Y35	Z35	X36	Y36	Z36	X37	Y37	Z37	X38	Y38	Z38	

110	0.4541666666666667	512.6209106445314	1174.958740234375	-1226.28173828125	402.1090393066407	1165.05419921875	-1213.956298828125	560.9238891601564	1084.45947265625	-1414.365112304688	331.9930419921876	1095.188354492188	-1405.933349609375	628.0081787109376	809.0525512695315	-1271.792602539063	607.6780395507814	781.8374023437502	-1322.23046875	612.9096069335939	725.8553466796876	-1267.693481445313	583.4782714843751	700.7600097656251	-1311.866333007813	594.6503906250001	530.1435546875001	-902.540466308594	601.0311279296876	469.4076232910157	-912.3925781250002	596.6293945312501	493.7937927246095	-856.6629028320315	590.6022949218751	434.9241638183595	-865.979675292969	543.2965698242189	495.4985656738282	-720.1005859375001	504.6135864257814	485.1257934570314	-692.0730590820314	567.0376586914064	492.0710754394532	-677.5419311523439	500.1081848144532	415.2641601562501	-711.7347412109376	597.0444946289064	435.0976562500001	-685.3285522460939	523.4005737304689	363.7547607421876	-729.4035034179689	525.0553588867189	331.8074645996094	-712.5750122070314	578.1032104492189	325.7650451660157	-727.0310668945314	605.1600952148439	390.3746643066407	-659.3049926757814	519.0030517578126	276.1040649414063	-682.6695556640626	575.0004882812501	266.9748229980469	-688.8630371093751	625.2318115234376	312.9037475585938	-647.6722412109376	567.8556518554689	209.9655151367188	-686.8737182617189	260.5278930664063	809.585388183594	-1377.58544921875	270.6454772949219	816.7092895507815	-1437.31201171875	274.4668273925782	736.8962402343751	-1420.844482421875	300.8593750000001	745.0800170898439	-1476.236572265625	326.4168701171876	292.9689941406251	-1463.010375976563	321.0477905273438	285.5706481933594	-1515.7119140625	331.7987670898438	243.3584747314454	-1491.06591796875	340.1679077148438	240.5622711181641	-1547.376831054688	395.9139099121095	83.05087280273439	-1473.545166015625	376.4348754882813	41.1621322631836	-1486.8134765625	433.0398254394532	56.2205047607422	-1486.358764648438	444.3345031738282	128.1713562011719	-1695.93701171875	345.1931457519532	61.04095840454103	-1676.367431640625	
111	0.4583333333333333	513.2058715820314	1170.130126953125	-1238.613525390625	402.6605224609376	1160.029052734375	-1226.316284179688	561.0537109375001	1080.601440429688	-1427.19091796875	332.3918151855469	1091.029418945313	-1418.532470703125	628.5732421875001	803.9526367187502	-1286.368041992188	608.4486083984376	777.233093261719	-1337.20166015625	613.6663818359376	720.7007446289064	-1283.298950195313	584.3871459960939	696.0682373046876	-1327.802124023438	595.9104003906251	530.7503051757814	-920.0156860351565	602.2182006835939	469.8252258300782	-928.4992675781252	598.0109252929689	495.3936462402345	-873.3209228515627	591.9990234375001	436.4315490722657	-881.3228149414065	544.9780273437501	500.5896911621095	-737.6459350585939	505.8916625976564	490.8821411132814	-709.0922851562501	568.5633544921876	498.4980773925782	-694.9959106445314	501.6658935546876	420.6273193359376	-726.9929199218751	598.5554809570314	441.2691955566407	-700.8231811523439	524.9184570312501	368.3559875488282	-742.8140258789064	526.8347167968751	336.9952087402344	-725.0866699218751	579.8120727539064	330.7059631347657	-739.0989379882814	606.6475830078126	397.4726867675782	-673.2886352539064	520.6163940429689	282.4010314941407	-693.3798217773439	576.5856323242189	273.0884704589844	-699.1037597656251	626.7088012695314	320.4258117675782	-659.1750488281251	569.4464111328126	216.2752532958985	-695.3202514648439	261.5562133789063	806.563903808594	-1391.795532226563	270.9672241210938	813.8867797851565	-1451.631713867188	274.9687500000001	733.9592285156251	-1435.436889648438	300.8683166503907	742.3439331054689	-1491.057739257813	327.8551635742188	289.5064086914063	-1473.392211914063	321.9727783203126	281.2354736328126	-1526.062255859375	333.0978393554688	239.3972167968751	-1500.903686523438	340.9737243652344	235.8140411376954	-1557.165405273438	398.0515136718751	82.4299774169922	-1481.822021484375	377.9253540039063	40.5666847229004	-1493.470703125	434.6550598144532	54.58474349975587	-1493.819580078125	445.6223754882814	121.7695007324219	-1704.534301757813	346.4679565429688	54.85971450805665	-1683.510986328125	
112	0.4625	513.9166870117189	1165.235961914063	-1250.832153320313	403.2395324707032	1154.825927734375	-1238.680908203125	561.2225952148439	1076.572021484375	-1439.961547851563	332.6244812011719	1086.892822265625	-1431.279174804688	629.1960449218751	798.7186279296877	-1300.917602539063	609.3901977539064	772.590270996094	-1352.173828125	614.2812500000001	715.4722290039064	-1298.90185546875	585.3698120117189	691.2169799804689	-1343.797607421875	597.1881103515626	531.1569824218751	-937.7714843750002	603.4679565429689	470.034637451172	-944.9730224609377	599.4938354492189	496.8804626464845	-890.317321777344	593.3274536132814	437.6888122558595	-897.0119628906252	546.4856567382814	505.342742919922	-755.6086425781251	506.9121093750001	496.0289916992189	-726.3661499023439	570.0384521484376	504.7419433593751	-712.9072265625001	503.2395935058595	425.563934326172	-742.5966186523439	599.9830322265626	447.2039794921876	-716.7999267578126	525.2562866210939	372.2917480468751	-756.4749145507814	528.4882202148439	341.9954833984376	-737.8588867187501	581.4606933593751	335.5549621582032	-751.5793457031251	607.9291381835939	404.1918029785157	-687.8951416015626	522.1410522460939	288.5969238281251	-704.5091552734376	578.2562866210939	279.2268676757813	-709.7899169921876	628.1647338867189	327.8022460937501	-671.2524414062501	571.2273559570314	222.5275115966797	-704.0114135742189	262.6689453125001	803.2891235351565	-1406.10693359375	271.2261352539063	810.7799072265627	-1466.046630859375	275.4513549804688	730.8649291992189	-1450.2353515625	300.3648376464844	739.7146606445314	-1505.69873046875	329.1092834472657	285.9093322753907	-1483.562377929688	322.6907958984376	276.7263793945313	-1536.0556640625	334.2934265136719	235.3111877441407	-1510.405395507813	341.7845764160157	230.9426727294922	-1566.665283203125	400.6408081054689	82.94460296630861	-1488.974487304688	379.3444213867188	40.83903121948243	-1498.33642578125	436.410614013672	53.61391448974611	-1499.67236328125	447.137908935547	114.5297927856446	-1712.0029296875	347.6987915039063	47.88387680053712	-1688.344116210938	
113	0.4666666666666667	514.6114501953126	1159.9609375	-1263.07763671875	403.8741455078126	1149.521240234375	-1251.063232421875	561.4277343750001	1072.368896484375	-1452.757568359375	332.7036132812501	1082.64208984375	-1444.126342773438	629.8825683593751	793.4639892578127	-1315.411376953125	610.4729003906251	767.8699340820314	-1367.060302734375	615.1298217773439	710.1103515625001	-1314.468017578125	586.4649047851564	686.3762817382814	-1359.831298828125	598.4951171875001	531.3388671875001	-955.7877197265627	604.7701416015626	470.1136474609376	-961.6958007812502	600.7985229492189	498.0291137695314	-907.6442871093752	594.6666259765626	438.7144775390626	-913.068298339844	547.8319091796876	509.7017517089845	-774.0676269531252	507.732635498047	501.1539916992189	-744.4407348632814	571.2225341796876	510.4703979492189	-731.3120117187501	504.6957397460939	430.3636474609376	-758.5941162109376	601.2914428710939	452.8376770019532	-733.2398681640626	526.7104492187501	376.9544982910157	-770.8037719726565	529.7443237304689	347.6511840820313	-751.1516723632814	583.1442871093751	340.2014160156251	-764.5441284179689	609.0919799804689	410.7689514160157	-702.9906005859376	523.6495361328126	294.5509948730469	-716.1876220703126	579.8472900390626	285.1632385253907	-721.0479125976564	629.5043945312501	334.9631958007813	-683.8760986328126	572.9365844726564	228.7377624511719	-713.4397583007814	263.8006286621094	799.8245239257815	-1420.495483398438	271.3799743652344	807.542907714844	-1480.576416015625	275.8785400390626	727.4445190429689	-1465.207763671875	299.8932189941407	736.5966796875001	-1520.961181640625	330.2998657226563	282.2198791503907	-1493.6533203125	323.5109863281251	272.1172790527344	-1546.023803710938	335.3650512695313	231.1823883056641	-1519.75927734375	342.7110290527344	225.7794342041016	-1575.874267578125	404.2131652832032	83.19133758544923	-1495.274291992188	380.8439025878907	41.62648010253907	-1501.3896484375	438.8577270507814	52.22363281250001	-1504.567504882813	448.6651306152345	105.3006591796875	-1718.972534179688	348.7599182128907	39.98658752441407	-1691.903564453125	
